HIERARCHY
ROOT joint_Root
{
	OFFSET 0.0 0.0 0.0
	CHANNELS 6 Xposition Yposition Zposition Zrotation Xrotation Yrotation 
	JOINT Hips
	{
		OFFSET 4.5925 91.4895 -427.239
		CHANNELS 6 Xposition Yposition Zposition Zrotation Xrotation Yrotation 
		JOINT Spine
		{
			OFFSET 15.7357 0.0 0.0
			CHANNELS 6 Xposition Yposition Zposition Zrotation Xrotation Yrotation 
			JOINT Chest
			{
				OFFSET 8.98455 -0.406207 0.0
				CHANNELS 6 Xposition Yposition Zposition Zrotation Xrotation Yrotation 
				JOINT Neck
				{
					OFFSET 16.3773 0.0 0.0
					CHANNELS 6 Xposition Yposition Zposition Zrotation Xrotation Yrotation 
					JOINT Head
					{
						OFFSET 6.45672 0.0 0.0
						CHANNELS 6 Xposition Yposition Zposition Zrotation Xrotation Yrotation 
						End Site
						{
							OFFSET 0.0 0.0 0.0
						}
					}
				}
				JOINT Shoulder_L
				{
					OFFSET 12.9942 -0.242716 4.98039
					CHANNELS 6 Xposition Yposition Zposition Zrotation Xrotation Yrotation 
					JOINT UpperArm_L
					{
						OFFSET 5.34809 0.0 0.0
						CHANNELS 6 Xposition Yposition Zposition Zrotation Xrotation Yrotation 
						JOINT LowerArm_L
						{
							OFFSET 24.3286 1.87007e-05 0.0
							CHANNELS 6 Xposition Yposition Zposition Zrotation Xrotation Yrotation 
							JOINT Hand_L
							{
								OFFSET 22.2916 0.0 0.0
								CHANNELS 6 Xposition Yposition Zposition Zrotation Xrotation Yrotation 
								End Site
								{
									OFFSET 0.0 0.0 0.0
								}
							}
						}
					}
				}
				JOINT Shoulder_R
				{
					OFFSET 12.9945 -0.242716 -4.98039
					CHANNELS 6 Xposition Yposition Zposition Zrotation Xrotation Yrotation 
					JOINT UpperArm_R
					{
						OFFSET -5.34813 0.0 0.0
						CHANNELS 6 Xposition Yposition Zposition Zrotation Xrotation Yrotation 
						JOINT LowerArm_R
						{
							OFFSET -24.3289 0.000322201 0.0
							CHANNELS 6 Xposition Yposition Zposition Zrotation Xrotation Yrotation 
							JOINT Hand_R
							{
								OFFSET -22.2915 -0.000108084 0.0
								CHANNELS 6 Xposition Yposition Zposition Zrotation Xrotation Yrotation 
								End Site
								{
									OFFSET 0.0 0.0 0.0
								}
							}
						}
					}
				}
			}
		}
		JOINT UpperLeg_L
		{
			OFFSET -2.19248 -6.46944 0.0
			CHANNELS 6 Xposition Yposition Zposition Zrotation Xrotation Yrotation 
			JOINT LowerLeg_L
			{
				OFFSET 39.0811 0.0 -1.23785e-05
				CHANNELS 6 Xposition Yposition Zposition Zrotation Xrotation Yrotation 
				JOINT Foot_L
				{
					OFFSET 40.9854 0.0 -1.26872e-05
					CHANNELS 6 Xposition Yposition Zposition Zrotation Xrotation Yrotation 
					JOINT Toes_L
					{
						OFFSET 11.7543 0.0 0.0
						CHANNELS 6 Xposition Yposition Zposition Zrotation Xrotation Yrotation 
						End Site
						{
							OFFSET 0.0 0.0 0.0
						}
					}
				}
			}
		}
		JOINT UpperLeg_R
		{
			OFFSET -2.19251 6.46944 0.0
			CHANNELS 6 Xposition Yposition Zposition Zrotation Xrotation Yrotation 
			JOINT LowerLeg_R
			{
				OFFSET -39.0811 -0.00228153 -0.0401928
				CHANNELS 6 Xposition Yposition Zposition Zrotation Xrotation Yrotation 
				JOINT Foot_R
				{
					OFFSET -40.9854 0.0 0.0
					CHANNELS 6 Xposition Yposition Zposition Zrotation Xrotation Yrotation 
					JOINT Toes_R
					{
						OFFSET -11.7543 0.0 0.0
						CHANNELS 6 Xposition Yposition Zposition Zrotation Xrotation Yrotation 
						End Site
						{
							OFFSET 0.0 0.0 0.0
						}
					}
				}
			}
		}
	}
}
MOTION
Frames:	6
Frame Time:	0.0333333
0.000000 0.000000 0.000000 0.000000 0.000000 -0.000000 138.473000 88.487300 131.002000 125.602000 -75.632800 26.482300 15.735700 0.000005 -0.000001 125.672000 81.482400 -128.017000 8.984550 -0.406207 -0.000000 6.355390 9.934730 -5.248860 16.377300 -0.000001 -0.000001 -0.447223 -7.206070 4.084470 6.456720 -0.000001 -0.000000 -1.470640 -12.922400 9.668590 12.994200 -0.242716 4.980390 -84.147700 -14.672100 -67.968100 5.348090 -0.000007 -0.000001 -85.934900 41.227900 43.471000 24.328600 0.000019 0.000005 2.711540 0.874710 -72.131100 22.291600 -0.000001 0.000005 -3.859240 5.587090 -10.597700 12.994500 -0.242716 -4.980390 90.512700 -3.288090 -81.132500 -5.348130 -0.000001 -0.000004 -41.977900 36.263100 -73.079700 -24.328900 0.000322 -0.000009 -6.984230 3.758970 -118.154000 -22.291500 -0.000108 -0.000004 20.473700 5.594540 -11.021400 -2.192480 -6.469440 -0.000000 -171.922000 -4.572270 -31.496900 39.081100 -0.000007 -0.000012 0.011699 -0.019825 30.544700 40.985400 -0.000006 -0.000013 0.418211 0.056441 -68.503400 11.754300 -0.000000 0.000003 -0.006562 -0.075865 -19.664800 -2.192510 6.469440 -0.000001 170.856000 18.500200 -174.249000 -39.081100 -0.002282 -0.040193 0.039499 -0.070896 27.043600 -40.985400 0.000008 0.000006 20.811900 12.788000 -72.917600 -11.754300 -0.000006 -0.000006 -0.128431 -0.510239 -38.029200
0.000000 0.000000 0.000000 0.000000 0.000000 -0.000000 135.859000 86.346300 135.384000 128.220000 -76.949700 30.061300 15.735700 0.000005 -0.000001 122.319000 81.335300 -124.382000 8.984550 -0.406207 -0.000000 7.120080 9.244760 -4.705600 16.377300 -0.000001 -0.000001 -0.724492 -7.245380 3.363280 6.456720 -0.000001 -0.000000 -2.220440 -13.123500 9.588230 12.994200 -0.242716 4.980390 -84.872200 -13.293400 -68.681200 5.348090 -0.000007 -0.000001 -83.175100 40.065700 42.291600 24.328600 0.000019 0.000005 4.508520 1.279520 -74.187300 22.291600 -0.000001 0.000005 -2.278790 5.592390 -10.896800 12.994500 -0.242716 -4.980390 90.301700 -1.821670 -80.594000 -5.348130 -0.000001 -0.000004 -43.179600 36.555900 -70.261600 -24.328900 0.000322 -0.000009 -9.098400 4.980210 -118.462000 -22.291500 -0.000108 -0.000004 21.200200 5.602370 -11.484300 -2.192480 -6.469440 -0.000000 -172.805000 -7.121710 -32.889800 39.081100 -0.000007 -0.000012 -0.253611 0.412455 31.587000 40.985400 -0.000006 -0.000013 -2.109140 -0.111019 -69.231100 11.754300 -0.000000 0.000003 -0.006555 -0.075803 -19.662300 -2.192510 6.469440 -0.000001 167.291000 14.976500 -171.673000 -39.081100 -0.002282 -0.040193 0.022532 -0.034204 29.343900 -40.985400 0.000008 0.000006 17.775600 12.958100 -75.985700 -11.754300 -0.000006 -0.000006 -0.151342 -0.557381 -40.154400
0.000000 0.000000 0.000000 0.000000 0.000000 -0.000000 132.537000 84.495700 140.043000 129.892000 -77.746100 31.978300 15.735700 0.000005 -0.000001 117.869000 81.836200 -119.593000 8.984550 -0.406207 -0.000000 6.831630 7.621870 -3.904060 16.377300 -0.000001 -0.000001 -0.995028 -7.666430 3.632150 6.456720 -0.000001 -0.000000 -2.021150 -13.013800 8.313680 12.994200 -0.242716 4.980390 -86.989800 -8.008460 -69.320700 5.348090 -0.000007 -0.000001 -76.186200 36.373500 39.109600 24.328600 0.000019 0.000005 5.531420 1.319510 -76.623900 22.291600 -0.000001 0.000005 1.762920 5.592070 -10.882600 12.994500 -0.242716 -4.980390 89.683800 1.866890 -80.386000 -5.348130 -0.000001 -0.000004 -44.619000 39.476300 -60.565700 -24.328900 0.000322 -0.000009 -11.224400 5.801020 -116.991000 -22.291500 -0.000108 -0.000004 21.751100 5.610770 -12.008100 -2.192480 -6.469440 -0.000000 -173.246000 -9.582590 -35.825200 39.081100 -0.000007 -0.000012 -0.624056 0.762917 39.284700 40.985400 -0.000006 -0.000013 -14.654000 0.802856 -60.878200 11.754300 -0.000000 0.000003 -0.008357 -0.090931 -20.279900 -2.192510 6.469440 -0.000001 164.689000 10.233600 -170.771000 -39.081100 -0.002282 -0.040193 0.033628 -0.047067 32.799800 -40.985400 0.000008 0.000006 15.306300 13.063800 -75.401100 -11.754300 -0.000006 -0.000006 -0.215757 -0.670657 -45.439500
0.000000 0.000000 0.000000 0.000000 0.000000 -0.000000 128.180000 83.225400 144.487000 129.336000 -79.523800 32.448200 15.735700 0.000005 -0.000001 114.057000 82.285300 -115.293000 8.984550 -0.406207 -0.000000 6.422130 6.285730 -2.824560 16.377300 -0.000001 -0.000001 -0.929527 -8.194820 4.427380 6.456720 -0.000001 -0.000000 -0.889594 -12.833400 8.266630 12.994200 -0.242716 4.980390 -89.330600 -1.657420 -67.989800 5.348090 -0.000007 -0.000001 -67.671600 31.863700 30.771400 24.328600 0.000019 0.000005 3.795870 0.812111 -77.941200 22.291600 -0.000001 0.000005 4.914960 5.579290 -10.175700 12.994500 -0.242716 -4.980390 88.643900 7.648900 -79.916900 -5.348130 -0.000001 -0.000004 -47.813100 41.935500 -41.757400 -24.328900 0.000322 -0.000009 -12.778600 5.325100 -112.256000 -22.291500 -0.000108 -0.000004 20.945600 5.619750 -12.608700 -2.192480 -6.469440 -0.000000 -173.773000 -11.868900 -36.347700 39.081100 -0.000007 -0.000012 -0.423608 0.364064 49.324000 40.985400 -0.000006 -0.000013 -12.448300 3.336030 -66.823300 11.754300 -0.000000 0.000003 -0.002203 -0.031232 -17.846700 -2.192510 6.469440 -0.000001 164.609000 5.597310 -171.203000 -39.081100 -0.002282 -0.040193 0.126761 -0.154500 38.632500 -40.985400 0.000008 0.000006 16.110500 10.635700 -68.068600 -11.754300 -0.000006 -0.000006 -0.402398 -0.906349 -57.652300
0.000000 0.000000 0.000000 0.000000 0.000000 -0.000000 123.705000 83.099000 148.300000 124.951000 -79.499400 30.860400 15.735700 0.000005 -0.000001 107.712000 81.911600 -108.852000 8.984550 -0.406207 -0.000000 7.715090 4.902360 -2.608590 16.377300 -0.000001 -0.000001 -0.631014 -8.712770 3.995300 6.456720 -0.000001 -0.000000 -0.408463 -14.295400 11.355100 12.994200 -0.242716 4.980390 -90.760100 1.767060 -66.719100 5.348090 -0.000007 -0.000001 -63.127200 25.032300 15.280800 24.328600 0.000019 0.000005 5.322020 1.061390 -78.748800 22.291600 -0.000001 0.000005 3.658880 5.560530 -9.211930 12.994500 -0.242716 -4.980390 87.669400 11.822600 -78.765300 -5.348130 -0.000001 -0.000004 -56.621200 39.284500 -18.044400 -24.328900 0.000322 -0.000009 -14.951300 2.080930 -97.746300 -22.291500 -0.000108 -0.000004 18.586600 5.626350 -13.064000 -2.192480 -6.469440 -0.000000 -174.452000 -14.968600 -31.717000 39.081100 -0.000007 -0.000012 -0.327647 0.245464 53.161300 40.985400 -0.000006 -0.000013 -9.059810 7.243550 -72.274600 11.754300 -0.000000 0.000003 -0.000005 -0.000077 -16.580500 -2.192510 6.469440 -0.000001 165.237000 3.737490 -173.883000 -39.081100 -0.002282 -0.040193 0.252997 -0.216666 49.057200 -40.985400 0.000008 0.000006 14.696000 7.169180 -52.325000 -11.754300 -0.000006 -0.000006 -0.421151 -0.925089 -58.727300
0.000000 0.000000 0.000000 0.000000 0.000000 -0.000000 119.848000 83.722200 151.533000 123.427000 -78.621800 30.566200 15.735700 0.000005 -0.000001 102.625000 81.892600 -104.069000 8.984550 -0.406207 -0.000000 8.114430 3.524150 -3.137230 16.377300 -0.000001 -0.000001 0.036651 -9.825780 4.374100 6.456720 -0.000001 -0.000000 -0.349003 -14.662600 11.743900 12.994200 -0.242716 4.980390 -91.445000 3.520980 -67.669100 5.348090 -0.000007 -0.000001 -65.145700 18.560400 0.313326 24.328600 0.000019 0.000005 3.475050 0.392247 -83.591800 22.291600 -0.000001 0.000005 1.109770 5.558500 -9.111350 12.994500 -0.242716 -4.980390 87.444900 11.355800 -77.230500 -5.348130 -0.000001 -0.000004 -64.893900 34.152400 -2.270020 -24.328900 0.000322 -0.000009 -12.401100 -3.483680 -74.542200 -22.291500 -0.000108 -0.000004 22.945600 5.641650 -14.224200 -2.192480 -6.469440 -0.000000 -175.623000 -14.372400 -26.738300 39.081100 -0.000007 -0.000012 -0.299067 0.228972 52.562300 40.985400 -0.000006 -0.000013 -7.296960 7.652460 -75.813600 11.754300 -0.000000 0.000003 -0.000010 -0.000138 -16.583000 -2.192510 6.469440 -0.000001 166.088000 3.038670 178.496000 -39.081100 -0.002282 -0.040193 0.360457 -0.193508 61.558800 -40.985400 0.000008 0.000006 12.842300 0.470133 -36.312800 -11.754300 -0.000006 -0.000006 -0.037128 -0.248454 -26.771200
